<svg viewBox="0 0 100 100" xmlns="http://www.w3.org/2000/svg" aria-label="lighthouse logo dark">
  <rect width="100" height="100" fill="#1c1d22" />
  <g fill="#f5f5f5">
    <ellipse cx="50" cy="20" rx="4" ry="12" />
    <ellipse cx="50" cy="20" rx="4" ry="12" transform="rotate(30 50 50)" />
    <ellipse cx="50" cy="20" rx="4" ry="12" transform="rotate(60 50 50)" />
    <ellipse cx="50" cy="20" rx="4" ry="12" transform="rotate(90 50 50)" />
    <ellipse cx="50" cy="20" rx="4" ry="12" transform="rotate(120 50 50)" />
    <ellipse cx="50" cy="20" rx="4" ry="12" transform="rotate(150 50 50)" />
    <ellipse cx="50" cy="20" rx="4" ry="12" transform="rotate(180 50 50)" />
    <ellipse cx="50" cy="20" rx="4" ry="12" transform="rotate(210 50 50)" />
    <ellipse cx="50" cy="20" rx="4" ry="12" transform="rotate(240 50 50)" />
    <ellipse cx="50" cy="20" rx="4" ry="12" transform="rotate(270 50 50)" />
    <ellipse cx="50" cy="20" rx="4" ry="12" transform="rotate(300 50 50)" />
    <ellipse cx="50" cy="20" rx="4" ry="12" transform="rotate(330 50 50)" />
  </g>
</svg>
